PathFileType	4	(X/Y/Z)	20_1_30_p1_0-472_filt_butterworth.trc
DataRate	CameraRate	NumFrames	NumMarkers	Units	OrigDataRate	OrigDataStartFrame	OrigNumFrames
57.0	57.0	5	27	m	57.0	118	472
Frame#	Time	RHip			RKnee			RAnkle			RBigToe			RSmallToe			RHeel			LHip			LKnee			LAnkle			LBigToe			LSmallToe			LHeel			Neck			Head			Nose			RShoulder			RElbow			RWrist			RThumb			RIndex			RPinky			LShoulder			LElbow			LWrist			LThumb			LIndex			LPinky			
		X1	Y1	Z1	X2	Y2	Z2	X3	Y3	Z3	X4	Y4	Z4	X5	Y5	Z5	X6	Y6	Z6	X7	Y7	Z7	X8	Y8	Z8	X9	Y9	Z9	X10	Y10	Z10	X11	Y11	Z11	X12	Y12	Z12	X13	Y13	Z13	X14	Y14	Z14	X15	Y15	Z15	X16	Y16	Z16	X17	Y17	Z17	X18	Y18	Z18	X19	Y19	Z19	X20	Y20	Z20	X21	Y21	Z21	X22	Y22	Z22	X23	Y23	Z23	X24	Y24	Z24	X25	Y25	Z25	X26	Y26	Z26	X27	Y27	Z27	
118	2.0701754385964914	0.33078691145407085	0.5638870648499299	0.9622213785865871	0.33966205358394486	0.6773365904610692	1.3505406574737635	0.34646118023713596	0.8122678345931355	1.7469869212928844	0.3146257042857717	0.6279082768460875	1.8044987911401549	0.3861401384941332	0.6556672903753452	1.8013195790220788	0.3272673412914126	0.9225698627159549	1.8071036851836235	0.13441908283427553	0.6061090790015224	0.9728368069649668	0.1357673744394381	0.7025886365273774	1.3265111219602268	0.12443579487313876	0.8168471392392744	1.6970622902055421	0.11373677852353806	0.6807423749102528	1.8022137982098032	0.06371691045632033	0.7055695143454568	1.7944898789348778	0.12828351102018562	0.8607301398182835	1.7441267816017014	0.24544792900622547	0.46042713094805454	0.4413041278646059	0.2537370767396862	0.34320752374344976	0.2145547104493265	0.2311786528706065	0.29855659371657706	0.34434631480704436	0.38574758679853677	0.43621497709191814	0.5308291232586637	0.4143340708590238	0.4836598240828925	0.8019605889308674	0.31224888112979	0.40581622854268584	1.0007207035658283	0.2199372642675298	0.41622445605111824	1.0651155086716928	0.2180568840617341	0.43494973834565254	1.0767288943666304	0.23644783625760812	0.4586408264476121	1.0996285525686884	0.10046877748210005	0.47210581009295405	0.5269626978897834	0.0611728370320994	0.49433296063742543	0.7795650903190056	0.14583577891092947	0.42648495073770964	0.9859608134411129	0.22840386124839684	0.40582107862165223	1.0556775403149086	0.22955316349764981	0.4085514070730873	1.0690720854789324	0.22445431197829757	0.42317962622387856	1.076069241947717
119	2.087719298245614	0.33084019665290426	0.5637200894755916	0.9626179757347256	0.3396652325751	0.6772659500383542	1.350536444481148	0.3464514189566768	0.8122675828653005	1.7469231322526912	0.3144916296126827	0.6275083339501933	1.8043112221146305	0.38577938793960065	0.655655694906455	1.8012110423392629	0.3252603008782478	0.918173081834373	1.80484679869689	0.13447228801924963	0.6060213355497122	0.9731953162435664	0.1357321576112178	0.7027165303229707	1.3261717197046596	0.12434954889215014	0.8177437026955036	1.6973088910771181	0.11361778205282119	0.6805609597491649	1.802767122372432	0.06329612821971316	0.7061996358959108	1.7950069741697063	0.12812735273159354	0.8629530530356501	1.7476732949969687	0.24506735563095847	0.4593041192183155	0.44139645130508615	0.2525967148156595	0.34328816272878926	0.21458514264123169	0.2311867760518844	0.2985671627782711	0.3443420952644871	0.3857448948274519	0.43622144208717206	0.5308277373678134	0.41432406337695116	0.4836579533250461	0.8019563023724913	0.3122560504421079	0.40582752119166027	1.0008586751922575	0.21999089880878664	0.41616871772046843	1.0651653048847387	0.2180232284612869	0.434959008890369	1.0768021555386365	0.236653476652386	0.4593570148249669	1.100788480089158	0.0991728778591606	0.4676390785735195	0.5271513888929336	0.06116790016126718	0.49432254474206494	0.7795995463347805	0.14584167716981153	0.4265031626339626	0.9859703733330157	0.22841092019647444	0.4057185406952794	1.0556356623594725	0.229559206531995	0.4085012562500604	1.0690712614452718	0.22282344522895164	0.4226584399284738	1.0760123875168797
120	2.1052631578947367	0.3309447914242293	0.5634227777227147	0.9635762822576227	0.3396806799354482	0.677244985326814	1.350535411819178	0.3464462144308797	0.8122676564615534	1.746847991854625	0.31422862485526887	0.6271276859215975	1.8040002460234124	0.38537560971214646	0.6555740830276834	1.8010343068109653	0.32379643948802966	0.9165773709217185	1.8030523497607436	0.1345088358029434	0.6059126782403457	0.9738458615648455	0.1356959646209863	0.70316604472477	1.3259668485909673	0.12420113532415336	0.8185465169084938	1.697551949469306	0.11346322423900862	0.6815176456950549	1.8040661071973287	0.06308102102075583	0.7064855834832525	1.7955044277099652	0.12805303176216076	0.8644739541638226	1.749777590532125	0.2440197773585337	0.4561003971482729	0.4416279560555968	0.25225205482993834	0.3433430957440478	0.21459573021833378	0.23118744930512444	0.2985596087361783	0.34464878641011315	0.38574736831841355	0.43622813863091836	0.530828199359178	0.4143101859745777	0.4836495291178304	0.8019494639768256	0.3121718375511027	0.40553514992635975	1.0009172798405928	0.2200429423464182	0.41615408766355827	1.0652308909208845	0.21805478832354908	0.43502421768793864	1.0769051124290525	0.23676525021338551	0.4597449511335439	1.1013569954681215	0.09813775796132483	0.4644564567375469	0.527325221660143	0.0611569827098028	0.49430276475878404	0.7796447003754983	0.14584123000741572	0.4265323919226828	0.9859979393160357	0.22840086339042914	0.4056336961132372	1.0555906844575906	0.22955980580859578	0.4084727766596393	1.0690651331471077	0.22165434209272078	0.42227339148208975	1.075916837439955
121	2.12280701754386	0.33104702019374216	0.5630275177217287	0.9648456792063359	0.33969076089254857	0.6772281635586767	1.3505209274811578	0.3464460951027537	0.8122678058510422	1.7468138940915807	0.3142126985130961	0.6281843227598773	1.804138245194619	0.3851046631281997	0.6555266275312618	1.8008958354467093	0.32324184728684496	0.9167443039664784	1.8024191700763288	0.13452348140938913	0.6058735278244204	0.9742498299685951	0.1357010643308074	0.7038244974485233	1.3265578574401924	0.12403372667719212	0.8190570357579176	1.6976773468866422	0.11349059076549264	0.6829039084742756	1.8060007821760125	0.06303413811382984	0.7065407086649055	1.795909994897036	0.12803211340032222	0.8650601228299278	1.7502898013863317	0.24260957350229906	0.45176451495467906	0.4419308546015186	0.2523825363785209	0.3435555997657353	0.2145667605456265	0.2311871921307571	0.29850214424602634	0.34549419115811686	0.3857491798804048	0.43623827169418933	0.5308273983007312	0.4143035268708276	0.4836314819886903	0.8019409890416762	0.31214662357037154	0.4054047323666409	1.0009370756285751	0.22007555617813176	0.4161773669007157	1.0652984898275846	0.21811738392990188	0.4351197083609245	1.0769969718870651	0.23680548250716213	0.45985712003430057	1.101500637506814	0.09767467841923008	0.46346478122972434	0.5274372419533352	0.06113958401265807	0.4942863730472823	0.7796643450762272	0.14582010551253918	0.42655319376155737	0.9860437168116158	0.22836428584670143	0.40558190191377835	1.0555167089318882	0.22954601704844702	0.4084690807035939	1.0690466653327344	0.22123927658936307	0.4221249927077305	1.075818363995906
122	2.1403508771929824	0.3310852535276774	0.5626784478599872	0.9658204434033241	0.33968545749195694	0.6771961220856023	1.350480453017684	0.3464469559227041	0.8122602473286394	1.7468315178087088	0.3148585828481897	0.6319259259687467	1.805307940721514	0.3850410485378259	0.6555845608037594	1.8008698233137115	0.32314199717605546	0.9172665939755106	1.8025864482846827	0.13452837260175043	0.6058802563084732	0.9743762615541997	0.13577357532675552	0.704365710255223	1.3279900601916224	0.12398773529045297	0.8192941098663786	1.6977419218189485	0.11366350708128328	0.6840849213006712	1.808009287010002	0.06304284912626024	0.7065582643063341	1.7961262283143065	0.1280484269066543	0.8651634215101875	1.7501494024969333	0.24155585426694132	0.4485403092591039	0.4421581585985089	0.2525084228763811	0.3436357750768542	0.21455907494802295	0.2311889021780803	0.2983991816433985	0.34664052970892967	0.3857428707228844	0.43624632103512456	0.5308268702750342	0.41430758309076793	0.4836154415317966	0.80193717961074	0.3125232067065179	0.4064751452175276	1.0010715614761907	0.2200926693076716	0.416203207436407	1.065351007438037	0.21815857800118926	0.4351627149701173	1.077042483913618	0.2368081878758124	0.4598226107792997	1.1014391564083443	0.097619540889841	0.46357846095656935	0.5274873708929532	0.061118730764119444	0.49428683339417456	0.7796436000576203	0.1457829370052114	0.42655117829640393	0.9860926444209358	0.22831556437261838	0.4055825362914448	1.055446646481668	0.22952192041644914	0.4084934005786988	1.069022745477734	0.2211800365601775	0.4220780959545335	1.0757365590875398
